@startuml
skinparam Shadowing false
skinparam ParticipantPadding 20
skinparam BoxPadding 10


skinparam sequence {
    ArrowColor DodgerBlue
    ActorBorderColor DodgerBlue
    LifeLineBorderColor Blue

    ParticipantBackgroundColor #3483eb
    ParticipantBorderColor #3483eb
    ParticipantFontSize 14
    ParticipantFontColor White

    ActorBackgroundColor #3483eb
    ActorFontSize 14
    NoteBackgroundColor #3483eb
}

title otp system

skinparam class {
    ArrowColor #darkblue
    BorderColor black
}


class OTPGenerator {
    OTPChallenge
    counter
    passphrase
	getOTP()
    getOTPChallenge()
    sendOTPC_Response()
}
class OTPServer {
    OTPChallengeRecord[]
    create_OTPChallengeRecord()
    read_OTPChallengeRecord()
    update_OTPChallengeRecord()
    delete_OTPChallengeRecord()
}

class OTPChallengeRecord {
	OTPChallenge
    KVNR
    TelematikID
    lastOTP
    create()
    read()
    update()
    delete()
}

class OTPChallenge {
	seed
    counter
	algo
    issuedAt
    expires
    create()
    read()
    update()
    delete()
}

class OTPClient {
    OTPChallengeRecord
    state
    init_OTPSystem()
    getOTP()
    getCounter()
}

OTPServer o-- OTPChallengeRecord  
OTPClient *-- OTPGenerator 
OTPChallengeRecord  o-- OTPChallenge


@enduml